<?xml version="1.0" encoding="utf-8"?>
<!-- Generator: Adobe Illustrator 16.0.0, SVG Export Plug-In . SVG Version: 6.00 Build 0)  -->
<!DOCTYPE svg PUBLIC "-//W3C//DTD SVG 1.1//EN" "http://www.w3.org/Graphics/SVG/1.1/DTD/svg11.dtd">
<svg version="1.1" id="Layer_1" xmlns="http://www.w3.org/2000/svg" xmlns:xlink="http://www.w3.org/1999/xlink" x="0px" y="0px"
	 width="46.994px" height="46.994px" viewBox="0 0 46.994 46.994" enable-background="new 0 0 46.994 46.994" xml:space="preserve">
<circle cx="23.497" cy="23.497" r="23.497"/>
<g>
	<path fill="#FFFFFF" d="M30.841,28.665c0.104,0.104,0.156,0.234,0.156,0.391s-0.053,0.287-0.156,0.391l-1.484,1.445
		c-0.104,0.104-0.222,0.156-0.352,0.156c-0.156,0-0.287-0.052-0.391-0.156l-5.117-5.117l-5.117,5.117
		c-0.104,0.104-0.222,0.156-0.352,0.156c-0.156,0-0.287-0.052-0.391-0.156l-1.484-1.445c-0.104-0.104-0.156-0.234-0.156-0.391
		s0.052-0.286,0.156-0.391l5.156-5.117l-5.156-5.078c-0.26-0.26-0.26-0.521,0-0.781l1.445-1.484
		c0.156-0.104,0.286-0.156,0.391-0.156c0.156,0,0.286,0.053,0.391,0.156l5.117,5.078l5.117-5.078
		c0.156-0.104,0.286-0.156,0.391-0.156c0.156,0,0.286,0.053,0.391,0.156l1.445,1.484c0.26,0.261,0.26,0.508,0,0.742l-5.156,5.078
		L30.841,28.665z"/>
</g>
</svg>
